<svg id="Layer_1" data-name="Layer 1" xmlns="http://www.w3.org/2000/svg" xmlns:xlink="http://www.w3.org/1999/xlink" viewBox="0 0 32 33.84"><defs><linearGradient id="linear-gradient" x1="-0.7" y1="21.15" x2="36" y2="21.15" gradientUnits="userSpaceOnUse"><stop offset="0" stop-color="#fff"/><stop offset="1"/></linearGradient></defs><title>2</title><rect width="32" height="33" style="fill:#fff"/><path d="M4.3,13.35,6.82,6.83h.61L4.91,13.35Z" transform="translate(-4 -3)" style="fill:url(#linear-gradient)"/><path d="M10.36,7.13,9.51,8.26v0l1.36-.18v.61L9.51,8.55v0l.86,1.08L9.8,10,9.26,8.71h0L8.66,10l-.51-.32L9,8.56v0l-1.33.17V8.1L9,8.27v0l-.85-1.1.55-.31.56,1.25h0l.55-1.26Z" transform="translate(-4 -3)" style="fill:url(#linear-gradient)"/><path d="M14.1,7.13l-.86,1.13v0L14.6,8.1v.61l-1.36-.16v0l.86,1.08-.57.32L13,8.71h0L12.4,10l-.51-.32.86-1.1v0l-1.33.17V8.1l1.32.17v0l-.85-1.1.55-.31L13,8.09h0l.55-1.26Z" transform="translate(-4 -3)" style="fill:url(#linear-gradient)"/><path d="M9.18,17.93l-.86,1.13v0l1.36-.18v.61l-1.36-.16v0l.86,1.08-.57.32-.54-1.26h0l-.59,1.27L7,20.45l.86-1.1v0l-1.33.17V18.9l1.32.17v0L7,18l.55-.31.56,1.25h0l.55-1.26Z" transform="translate(-4 -3)" style="fill:url(#linear-gradient)"/><path d="M9.18,28.73l-.86,1.13v0l1.36-.18v.61l-1.36-.16v0l.86,1.08-.57.32-.54-1.26h0l-.59,1.27L7,31.25l.86-1.1v0l-1.33.17V29.7l1.32.17v0L7,28.75l.55-.32.56,1.25h0l.55-1.26Z" transform="translate(-4 -3)" style="fill:url(#linear-gradient)"/><path d="M9.95,35l2.51-6.53h.61L10.55,35Z" transform="translate(-4 -3)" style="fill:url(#linear-gradient)"/><text transform="translate(0.31 9.99)" style="font-size:9px;fill:#8c8c8c;font-family:MyriadPro-Regular, Myriad Pro">/**<tspan x="0" y="10.8" xml:space="preserve"> * </tspan><tspan x="0" y="21.6" xml:space="preserve"> */</tspan></text><text transform="translate(6.81 18.33)" style="font-size:6px;fill:#8c8c8c;font-family:MyriadPro-Regular, Myriad Pro">K<tspan x="3.25" y="0" style="letter-spacing:0.004069010416666667em">D</tspan><tspan x="7.27" y="0">o</tspan><tspan x="10.57" y="0" style="letter-spacing:0.0048828125em">c</tspan><tspan x="13.28" y="0" style="letter-spacing:0.01806640625em">-</tspan><tspan x="15.23" y="0">er </tspan></text><text transform="translate(27.56 17.49)" style="font-size:6px;fill:#8c8c8c;font-family:Sylfaen, Sylfaen">|</text></svg>